<svg width="8" height="8" viewBox="0 0 8 8" fill="none" xmlns="http://www.w3.org/2000/svg">
<path d="M4.11043 0.00157314C4.05753 6.53095e-05 4.00538 0.0143316 3.96062 0.0425562C3.91585 0.0707808 3.88049 0.111687 3.85905 0.160069C3.8376 0.20845 3.83104 0.262118 3.84019 0.314243C3.84934 0.366367 3.87379 0.41459 3.91043 0.452773C4.3839 0.946403 4.68674 1.57875 4.77455 2.25708C4.86235 2.93541 4.73049 3.62403 4.39831 4.22194C4.06613 4.81985 3.55111 5.2956 2.92878 5.5794C2.30645 5.8632 1.60955 5.94013 0.940301 5.79891C0.888597 5.78816 0.834868 5.79301 0.785924 5.81284C0.73698 5.83267 0.695024 5.86658 0.665377 5.91028C0.635729 5.95398 0.619724 6.0055 0.61939 6.05831C0.619056 6.11112 0.634409 6.16283 0.663501 6.20691C1.04261 6.78 1.56296 7.24578 2.17439 7.55932C2.78583 7.87287 3.46772 8.02362 4.15435 7.99704C4.84098 7.97046 5.50918 7.76745 6.09455 7.40758C6.67991 7.0477 7.1627 6.54309 7.49637 5.94241C7.83004 5.34172 8.00334 4.6652 7.99957 3.97807C7.99579 3.29094 7.81507 2.61636 7.47482 2.01938C7.13457 1.42239 6.64627 0.923118 6.05699 0.569693C5.4677 0.216269 4.79731 0.0206084 4.11043 0.00157314Z" fill="white"/>
</svg>
