<svg width="96" height="14" viewBox="0 0 96 14" fill="none" xmlns="http://www.w3.org/2000/svg">
<path d="M6.856 0.999999C7.85867 0.999999 8.72267 1.17067 9.448 1.512C10.184 1.85333 10.744 2.33867 11.128 2.968C11.512 3.58667 11.704 4.312 11.704 5.144C11.704 5.96533 11.512 6.69067 11.128 7.32C10.744 7.93867 10.184 8.41867 9.448 8.76C8.72267 9.10133 7.85867 9.272 6.856 9.272H1.656V6.616H6.648C7.18133 6.616 7.59733 6.488 7.896 6.232C8.19467 5.96533 8.344 5.60267 8.344 5.144C8.344 4.67467 8.19467 4.312 7.896 4.056C7.59733 3.78933 7.18133 3.656 6.648 3.656H1.944L3.432 2.12V13H0.12V0.999999H6.856ZM15.4393 6.248H19.8073C20.3406 6.248 20.7566 6.12533 21.0553 5.88C21.3539 5.63467 21.5033 5.29333 21.5033 4.856C21.5033 4.408 21.3539 4.06667 21.0553 3.832C20.7566 3.58667 20.3406 3.464 19.8073 3.464H14.9753L16.4633 1.88V13H13.1513V0.999999H20.2713C21.1886 0.999999 21.9886 1.16533 22.6713 1.496C23.3539 1.816 23.8873 2.264 24.2713 2.84C24.6553 3.40533 24.8473 4.07733 24.8473 4.856C24.8473 5.61333 24.6553 6.28 24.2713 6.856C23.8873 7.432 23.3539 7.88 22.6713 8.2C21.9886 8.52 21.1886 8.68 20.2713 8.68H15.4393V6.248ZM17.2313 7.384H20.9593L25.2633 13H21.4233L17.2313 7.384ZM33.212 13.256C31.7933 13.256 30.5453 12.9947 29.468 12.472C28.4013 11.9493 27.5693 11.2187 26.972 10.28C26.3853 9.34133 26.092 8.248 26.092 7C26.092 5.752 26.3853 4.65867 26.972 3.72C27.5693 2.78133 28.4013 2.05067 29.468 1.528C30.5453 1.00533 31.7933 0.743999 33.212 0.743999C34.6413 0.743999 35.8893 1.00533 36.956 1.528C38.0227 2.05067 38.8547 2.78133 39.452 3.72C40.0493 4.65867 40.348 5.752 40.348 7C40.348 8.248 40.0493 9.34133 39.452 10.28C38.8547 11.2187 38.0227 11.9493 36.956 12.472C35.8893 12.9947 34.6413 13.256 33.212 13.256ZM33.212 10.296C33.9907 10.296 34.6627 10.1627 35.228 9.896C35.7933 9.62933 36.2253 9.25067 36.524 8.76C36.8333 8.26933 36.988 7.68267 36.988 7C36.988 6.31733 36.8333 5.73067 36.524 5.24C36.2253 4.74933 35.7933 4.37067 35.228 4.104C34.6627 3.83733 33.9907 3.704 33.212 3.704C32.444 3.704 31.7773 3.83733 31.212 4.104C30.6467 4.37067 30.2093 4.74933 29.9 5.24C29.5907 5.73067 29.436 6.31733 29.436 7C29.436 7.68267 29.5907 8.26933 29.9 8.76C30.2093 9.25067 30.6467 9.62933 31.212 9.896C31.7773 10.1627 32.444 10.296 33.212 10.296ZM61.6841 0.999999C62.6868 0.999999 63.5508 1.17067 64.2761 1.512C65.0121 1.85333 65.5721 2.33867 65.9561 2.968C66.3401 3.58667 66.5321 4.312 66.5321 5.144C66.5321 5.96533 66.3401 6.69067 65.9561 7.32C65.5721 7.93867 65.0121 8.41867 64.2761 8.76C63.5508 9.10133 62.6868 9.272 61.6841 9.272H56.4841V6.616H61.4761C62.0095 6.616 62.4255 6.488 62.7241 6.232C63.0228 5.96533 63.1721 5.60267 63.1721 5.144C63.1721 4.67467 63.0228 4.312 62.7241 4.056C62.4255 3.78933 62.0095 3.656 61.4761 3.656H56.7721L58.2601 2.12V13H54.9481V0.999999H61.6841ZM70.2674 6.248H74.6354C75.1687 6.248 75.5847 6.12533 75.8834 5.88C76.182 5.63467 76.3314 5.29333 76.3314 4.856C76.3314 4.408 76.182 4.06667 75.8834 3.832C75.5847 3.58667 75.1687 3.464 74.6354 3.464H69.8034L71.2914 1.88V13H67.9794V0.999999H75.0994C76.0167 0.999999 76.8167 1.16533 77.4994 1.496C78.182 1.816 78.7154 2.264 79.0994 2.84C79.4834 3.40533 79.6754 4.07733 79.6754 4.856C79.6754 5.61333 79.4834 6.28 79.0994 6.856C78.7154 7.432 78.182 7.88 77.4994 8.2C76.8167 8.52 76.0167 8.68 75.0994 8.68H70.2674V6.248ZM72.0594 7.384H75.7874L80.0914 13H76.2514L72.0594 7.384ZM88.0401 13.256C86.6215 13.256 85.3735 12.9947 84.2961 12.472C83.2295 11.9493 82.3975 11.2187 81.8001 10.28C81.2135 9.34133 80.9201 8.248 80.9201 7C80.9201 5.752 81.2135 4.65867 81.8001 3.72C82.3975 2.78133 83.2295 2.05067 84.2961 1.528C85.3735 1.00533 86.6215 0.743999 88.0401 0.743999C89.4695 0.743999 90.7175 1.00533 91.7841 1.528C92.8508 2.05067 93.6828 2.78133 94.2801 3.72C94.8775 4.65867 95.1761 5.752 95.1761 7C95.1761 8.248 94.8775 9.34133 94.2801 10.28C93.6828 11.2187 92.8508 11.9493 91.7841 12.472C90.7175 12.9947 89.4695 13.256 88.0401 13.256ZM88.0401 10.296C88.8188 10.296 89.4908 10.1627 90.0561 9.896C90.6215 9.62933 91.0535 9.25067 91.3521 8.76C91.6615 8.26933 91.8161 7.68267 91.8161 7C91.8161 6.31733 91.6615 5.73067 91.3521 5.24C91.0535 4.74933 90.6215 4.37067 90.0561 4.104C89.4908 3.83733 88.8188 3.704 88.0401 3.704C87.2721 3.704 86.6055 3.83733 86.0401 4.104C85.4748 4.37067 85.0375 4.74933 84.7281 5.24C84.4188 5.73067 84.2641 6.31733 84.2641 7C84.2641 7.68267 84.4188 8.26933 84.7281 8.76C85.0375 9.25067 85.4748 9.62933 86.0401 9.896C86.6055 10.1627 87.2721 10.296 88.0401 10.296Z" fill="white"/>
<path d="M48.1143 7.768V5.752L54.0023 13H49.9223L46.0343 7.976H47.6663L43.7623 13H39.7302L45.6503 5.768V7.752L40.0823 0.999999H44.2263L47.7463 5.544H46.1143L49.5863 0.999999H53.6663L48.1143 7.768Z" fill="#1B85D9"/>
</svg>
