<svg width="8" height="8" viewBox="0 0 8 8" fill="none" xmlns="http://www.w3.org/2000/svg">
<g clip-path="url(#clip0_77_5377)">
<path d="M4.00005 1.42659C4.05899 1.42659 4.11551 1.40318 4.15719 1.36151C4.19886 1.31983 4.22228 1.26331 4.22228 1.20437V0.424371C4.22228 0.365434 4.19886 0.308911 4.15719 0.267236C4.11551 0.225561 4.05899 0.202148 4.00005 0.202148C3.94112 0.202148 3.88459 0.225561 3.84292 0.267236C3.80124 0.308911 3.77783 0.365434 3.77783 0.424371V1.20437C3.77783 1.26331 3.80124 1.31983 3.84292 1.36151C3.88459 1.40318 3.94112 1.42659 4.00005 1.42659Z" fill="white"/>
<path d="M4.00005 6.57324C3.94112 6.57324 3.88459 6.59665 3.84292 6.63833C3.80124 6.68 3.77783 6.73653 3.77783 6.79546V7.57546C3.77783 7.6344 3.80124 7.69092 3.84292 7.7326C3.88459 7.77427 3.94112 7.79769 4.00005 7.79769C4.05899 7.79769 4.11551 7.77427 4.15719 7.7326C4.19886 7.69092 4.22228 7.6344 4.22228 7.57546V6.79546C4.22228 6.73653 4.19886 6.68 4.15719 6.63833C4.11551 6.59665 4.05899 6.57324 4.00005 6.57324Z" fill="white"/>
<path d="M1.86675 2.18009C1.90926 2.21649 1.96395 2.23552 2.01988 2.23336C2.0758 2.2312 2.12886 2.20801 2.16843 2.16843C2.20801 2.12886 2.2312 2.0758 2.23336 2.01988C2.23552 1.96395 2.21649 1.90926 2.18009 1.86675L1.62898 1.31564C1.58646 1.27924 1.53178 1.26021 1.47585 1.26237C1.41992 1.26453 1.36687 1.28772 1.32729 1.32729C1.28772 1.36687 1.26453 1.41992 1.26237 1.47585C1.26021 1.53178 1.27924 1.58646 1.31564 1.62898L1.86675 2.18009Z" fill="white"/>
<path d="M6.13337 5.82004C6.09086 5.78363 6.03617 5.76461 5.98025 5.76677C5.92432 5.76893 5.87127 5.79211 5.83169 5.83169C5.79211 5.87127 5.76893 5.92432 5.76677 5.98025C5.76461 6.03617 5.78363 6.09086 5.82004 6.13337L6.37115 6.68448C6.41366 6.72089 6.46834 6.73991 6.52427 6.73775C6.5802 6.73559 6.63325 6.7124 6.67283 6.67283C6.7124 6.63325 6.73559 6.5802 6.73775 6.52427C6.73991 6.46834 6.72089 6.41366 6.68448 6.37115L6.13337 5.82004Z" fill="white"/>
<path d="M1.42659 4.00005C1.42659 3.94112 1.40318 3.88459 1.36151 3.84292C1.31983 3.80124 1.26331 3.77783 1.20437 3.77783H0.424371C0.365434 3.77783 0.308911 3.80124 0.267236 3.84292C0.225561 3.88459 0.202148 3.94112 0.202148 4.00005C0.202148 4.05899 0.225561 4.11551 0.267236 4.15719C0.308911 4.19886 0.365434 4.22228 0.424371 4.22228H1.20437C1.26331 4.22228 1.31983 4.19886 1.36151 4.15719C1.40318 4.11551 1.42659 4.05899 1.42659 4.00005Z" fill="white"/>
<path d="M7.57546 3.77783H6.79546C6.73653 3.77783 6.68 3.80124 6.63833 3.84292C6.59665 3.88459 6.57324 3.94112 6.57324 4.00005C6.57324 4.05899 6.59665 4.11551 6.63833 4.15719C6.68 4.19886 6.73653 4.22228 6.79546 4.22228H7.57546C7.6344 4.22228 7.69092 4.19886 7.7326 4.15719C7.77427 4.11551 7.79769 4.05899 7.79769 4.00005C7.79769 3.94112 7.77427 3.88459 7.7326 3.84292C7.69092 3.80124 7.6344 3.77783 7.57546 3.77783Z" fill="white"/>
<path d="M1.86675 5.82004L1.31564 6.37115C1.27924 6.41366 1.26021 6.46834 1.26237 6.52427C1.26453 6.5802 1.28772 6.63325 1.32729 6.67283C1.36687 6.7124 1.41992 6.73559 1.47585 6.73775C1.53178 6.73991 1.58646 6.72089 1.62898 6.68448L2.18009 6.13337C2.21649 6.09086 2.23552 6.03617 2.23336 5.98025C2.2312 5.92432 2.20801 5.87127 2.16843 5.83169C2.12886 5.79211 2.0758 5.76893 2.01988 5.76677C1.96395 5.76461 1.90926 5.78363 1.86675 5.82004Z" fill="white"/>
<path d="M6.13337 2.18009L6.68448 1.62898C6.72089 1.58646 6.73991 1.53178 6.73775 1.47585C6.73559 1.41992 6.7124 1.36687 6.67283 1.32729C6.63325 1.28772 6.5802 1.26453 6.52427 1.26237C6.46834 1.26021 6.41366 1.27924 6.37115 1.31564L5.82004 1.86675C5.78363 1.90926 5.76461 1.96395 5.76677 2.01988C5.76893 2.0758 5.79211 2.12886 5.83169 2.16843C5.87127 2.20801 5.92432 2.2312 5.98025 2.23336C6.03617 2.23552 6.09086 2.21649 6.13337 2.18009Z" fill="white"/>
<path d="M4.00005 6.22228C5.22735 6.22228 6.22228 5.22735 6.22228 4.00005C6.22228 2.77275 5.22735 1.77783 4.00005 1.77783C2.77275 1.77783 1.77783 2.77275 1.77783 4.00005C1.77783 5.22735 2.77275 6.22228 4.00005 6.22228Z" fill="white"/>
</g>
<defs>
<clipPath id="clip0_77_5377">
<rect width="8" height="8" fill="white"/>
</clipPath>
</defs>
</svg>
